<svg id="Livello_1" xmlns="http://www.w3.org/2000/svg" width="200mm" height="200mm" viewBox="0 0 566.93 566.93"><defs><style>.cls-1{fill:none;stroke:#e2e2e4;stroke-miterlimit:3.86;stroke-width:8.5px}</style></defs><path class="cls-1" d="M356.86 183.12c38.67 5.44 24.16 31 21.55 33.91-35.4 39.39-4.7 55.73-4.7 55.73s20.82-16.27 32.9-29.68c46.82-51.94 13.3-112.54-61.91-111.75-14.56.15-27.13 1.93-38.75 5.49-34.29 10.51-52.03 9.82-60.72 7.61-.49-1.66-.79-3.34-1.04-5.06-3.16-21.06 8.23-38.13 25.43-38.13 14.13 0 27.78 11.51 33.97 27.29"/><path class="cls-1" d="M250.71 446.93c-6.96-20.99 110.25-66.58 37.63-123.42-47.91-37.5-65.97-56.31-65.97-89.48 0-36.17 31.41-77.64 81-78.29-4.8 12.12-15.23 20.42-26.52 20.42-12.01 0-22.29-9.43-26.53-22.8"/><path class="cls-1" d="M362.24 280.19L156.68 451.13s-18.25 14.01-37.07 14.01H76.22c-15.71 0-20.29-19.91-20.29-19.91h66.98c17.26 0 32.84-12.15 32.84-12.15l234.82-187.19s-22.8-9.84-69.17-2.76c-52.25 7.98-98.04 49.79-91.77 87.71 7.25 43.86 76.24 51.22 84.31 92.12l-62.57 29.5s11.33 15.19 26.05 7.12c13.67-7.49 39.5-22.95 39.5-22.95"/><path class="cls-1" d="M363.49 465.28h163.12l-22.87-22.19c13.58-47.5-28.42-71.13-53.09-76.96-49.05-11.59-78.33-9.74-189.21-161.85 42.46 10.38-14.96 41.11 60.24 109.42 11.12 10.1-7.7 28.18-10.77 30.11"/><path class="cls-1" d="M406.42 255.68c62.78 88.57 21.18 94.48 24.33 120.03 3.32 26.84 35.67 58.36 80.08 61.71 3.45 8.23 16.72 28.35 16.72 28.35"/></svg>